<?xml version="1.0" standalone="no"?>
<!DOCTYPE svg PUBLIC "-//W3C//DTD SVG 20010904//EN"
 "http://www.w3.org/TR/2001/REC-SVG-20010904/DTD/svg10.dtd">
<svg version="1.0" xmlns="http://www.w3.org/2000/svg"
 width="1088.000000pt" height="1088.000000pt" viewBox="0 0 1088.000000 1088.000000"
 preserveAspectRatio="xMidYMid meet">
<metadata>
Created by potrace 1.14, written by Peter Selinger 2001-2017
</metadata>
<g transform="translate(0.000000,1088.000000) scale(0.100000,-0.100000)"
fill="#000000" stroke="none">
<path d="M5150 10659 c-19 -5 -44 -11 -54 -14 -10 -2 -42 -16 -70 -31 -123
-64 -223 -161 -268 -260 -29 -64 -34 -179 -11 -238 15 -36 78 -142 93 -156 4
-3 17 -23 30 -45 13 -22 26 -42 29 -45 15 -14 91 -130 91 -139 0 -6 5 -11 10
-11 6 0 10 -5 10 -10 0 -6 9 -20 20 -32 10 -11 26 -36 35 -54 9 -19 20 -34 25
-34 6 0 10 -4 10 -9 0 -11 209 -324 222 -332 6 -3 10 -10 11 -15 1 -5 18 -10
37 -11 42 -2 761 -4 775 -2 15 2 55 2 105 -1 25 -1 50 -1 55 0 18 4 139 -1
146 -6 4 -2 10 -1 13 4 3 5 20 7 38 6 54 -4 112 -6 123 -4 6 1 64 1 130 0
l120 -1 65 106 c36 58 70 113 75 123 39 67 155 260 265 440 71 116 127 212
124 212 -3 0 0 8 5 18 12 23 15 94 6 147 -28 164 -186 352 -330 393 -50 14
-1882 15 -1935 1z"/>
<path d="M5330 8785 c-5 -16 -16 -61 -25 -100 -8 -38 -20 -86 -25 -105 -9 -32
-116 -479 -125 -523 -2 -10 -7 -27 -10 -38 -4 -10 -8 -29 -9 -42 -2 -12 -6
-29 -9 -37 -5 -15 -35 -139 -42 -176 -2 -10 -4 -19 -5 -19 -1 0 -3 -7 -5 -15
-2 -8 -11 -46 -19 -85 -9 -38 -19 -81 -22 -95 -6 -31 -81 -340 -95 -395 -5
-22 -12 -49 -14 -60 -2 -11 -4 -20 -5 -20 -2 0 -4 -12 -13 -55 -19 -91 -60
-247 -69 -257 -6 -7 -7 -13 -3 -13 4 0 2 -7 -5 -15 -7 -8 -10 -15 -8 -15 3 0
-8 -53 -24 -117 -15 -65 -31 -129 -33 -143 -3 -14 -8 -38 -12 -55 -4 -16 -6
-33 -5 -37 1 -4 -5 -34 -13 -65 -9 -32 -18 -69 -20 -83 -8 -41 -12 -60 -45
-190 -11 -47 -23 -94 -25 -105 -3 -11 -9 -41 -15 -66 -6 -26 -12 -53 -13 -60
-2 -8 -6 -20 -11 -27 -4 -7 -5 -16 -2 -19 3 -3 1 -13 -3 -22 -5 -9 -11 -29
-14 -46 -2 -16 -10 -50 -17 -75 -7 -25 -14 -56 -17 -70 -2 -14 -9 -43 -15 -65
-13 -44 -13 -47 -22 -90 -3 -16 -16 -74 -30 -127 -13 -54 -21 -98 -19 -98 3 0
1 -6 -5 -12 -6 -7 -10 -16 -10 -21 -1 -4 -6 -32 -12 -62 -6 -30 -11 -58 -12
-62 0 -5 -4 -15 -8 -23 -4 -8 -10 -31 -14 -50 -3 -19 -12 -63 -21 -97 -9 -35
-18 -71 -20 -80 -1 -10 -10 -45 -19 -78 -8 -33 -18 -74 -21 -92 -3 -18 -9 -43
-15 -57 -5 -15 -8 -26 -5 -26 2 0 -1 -15 -6 -32 -13 -44 -19 -67 -26 -103 -3
-16 -10 -39 -16 -50 -6 -11 -12 -27 -13 -35 -2 -8 -12 -53 -23 -100 -12 -47
-24 -96 -27 -110 -3 -14 -18 -79 -35 -144 -16 -66 -27 -121 -25 -123 2 -2 0
-21 -5 -41 -5 -20 -12 -46 -14 -57 -4 -19 -13 -57 -31 -130 -4 -16 -9 -37 -10
-45 -1 -8 -14 -62 -29 -120 -15 -58 -28 -112 -30 -122 -2 -9 -17 -74 -34 -145
-17 -70 -33 -137 -35 -148 -2 -11 -9 -40 -16 -65 -7 -25 -14 -56 -17 -69 -2
-14 -6 -28 -8 -31 -2 -4 -7 -20 -9 -36 -6 -32 -8 -40 -31 -134 -9 -35 -18 -74
-20 -85 -2 -11 -4 -21 -6 -22 -1 -2 -2 -6 -3 -10 -15 -66 -20 -90 -22 -98 -1
-5 -3 -12 -4 -15 -1 -3 -3 -12 -5 -20 -2 -8 -6 -24 -9 -35 -3 -11 -12 -49 -20
-85 -8 -36 -20 -83 -25 -105 -11 -40 -11 -40 42 -88 28 -26 101 -86 161 -135
254 -205 442 -357 452 -367 6 -5 26 -21 44 -35 18 -14 38 -30 44 -35 6 -6 36
-30 66 -55 30 -25 57 -47 60 -50 3 -3 52 -43 110 -90 58 -46 107 -87 110 -90
3 -3 45 -39 95 -80 49 -41 103 -87 120 -102 16 -16 33 -28 37 -28 4 0 65 -48
135 -106 149 -123 151 -125 223 -184 30 -25 57 -47 60 -50 3 -3 21 -17 40 -32
19 -15 47 -37 62 -50 15 -13 40 -33 55 -45 15 -12 39 -31 53 -43 14 -12 51
-43 83 -68 31 -25 57 -49 57 -53 0 -5 5 -9 11 -9 6 0 51 -34 100 -75 49 -41
93 -75 98 -75 10 0 114 81 119 92 2 5 8 8 14 8 5 0 15 6 22 13 24 23 143 119
245 197 18 14 38 30 44 35 7 6 30 24 52 40 22 17 45 35 50 41 11 11 75 62 147
117 24 19 53 41 64 50 23 19 103 84 124 100 162 128 207 163 217 172 7 5 18
15 25 20 7 6 36 28 63 50 28 22 55 43 60 47 6 4 33 26 60 48 28 22 55 44 60
48 6 4 24 18 41 32 17 14 48 39 69 55 21 17 55 44 75 60 20 17 52 41 70 55 18
14 38 30 44 35 6 6 29 24 51 40 22 17 49 37 60 47 21 17 102 82 120 96 41 32
161 128 165 133 3 3 32 25 65 50 32 24 66 51 75 59 9 9 37 31 63 49 26 19 47
37 47 40 0 4 18 17 40 31 22 13 42 30 45 38 2 7 -2 41 -11 75 -17 66 -41 173
-48 212 -1 6 -4 15 -8 20 -6 10 -21 92 -18 97 1 2 -4 17 -10 33 -6 17 -13 41
-15 55 -2 14 -11 50 -20 80 -8 30 -17 66 -20 80 -3 14 -7 36 -11 50 -3 14 -9
41 -14 60 -5 19 -11 44 -13 55 -7 27 -28 116 -32 135 -1 8 -8 33 -14 55 -5 22
-13 55 -16 74 -3 19 -8 37 -10 41 -2 4 -13 47 -24 96 -12 49 -34 145 -51 214
-27 109 -34 138 -44 185 -17 77 -40 173 -44 185 -3 8 -7 24 -9 34 -2 11 -11
47 -19 80 -9 34 -18 69 -20 79 -2 9 -6 27 -9 40 -3 12 -8 33 -10 47 -2 14 -8
36 -13 50 -5 14 -10 30 -10 35 -2 15 -22 105 -32 145 -8 29 -56 228 -64 265
-17 78 -49 213 -54 225 -3 8 -6 22 -7 31 -1 9 -11 54 -23 100 -11 46 -24 98
-28 114 -4 17 -8 35 -10 40 -1 6 -5 21 -7 35 -3 14 -17 71 -31 127 -14 56 -28
112 -31 125 -2 13 -9 42 -15 66 -5 23 -15 61 -20 85 -6 23 -13 52 -15 65 -3
13 -17 69 -31 125 -14 56 -27 111 -29 122 -3 11 -7 29 -9 40 -3 11 -12 49 -21
85 -9 36 -18 76 -21 90 -3 14 -7 33 -10 42 -3 9 -7 26 -9 37 -7 28 -10 43 -30
126 -21 88 -24 100 -31 128 -3 12 -10 40 -14 62 -14 61 -15 65 -75 315 -32
129 -59 242 -60 250 -6 28 -56 233 -102 420 -25 102 -46 192 -47 200 -1 8 -7
33 -13 55 -6 22 -23 94 -38 160 -15 66 -31 134 -36 151 -11 36 -18 67 -25 109
-3 17 -9 41 -14 55 -5 14 -11 36 -13 50 -2 14 -6 32 -9 40 -5 13 -49 198 -54
225 -7 38 -37 164 -43 180 -8 20 -17 20 -775 20 l-766 0 -10 -30z"/>
<path d="M4870 8348 c-25 -27 -61 -67 -80 -87 -19 -20 -72 -77 -117 -127 -45
-49 -105 -114 -135 -145 -29 -31 -82 -89 -118 -129 -36 -39 -83 -91 -105 -114
-22 -24 -83 -90 -135 -146 -52 -57 -106 -115 -120 -130 -14 -15 -47 -51 -75
-81 -61 -66 -239 -260 -280 -304 -111 -120 -215 -233 -244 -264 -18 -20 -70
-76 -115 -125 -91 -100 -102 -112 -240 -259 -54 -59 -107 -117 -118 -129 -11
-13 -63 -70 -116 -127 -53 -57 -108 -116 -122 -131 -14 -15 -68 -73 -120 -130
-52 -57 -125 -135 -162 -174 l-67 -71 -1 -766 0 -766 53 14 c28 7 65 16 81 19
16 3 32 7 36 9 3 2 17 6 31 9 13 2 62 14 109 25 47 12 96 24 109 27 13 3 51
12 85 20 34 8 72 17 86 20 14 3 34 8 45 11 11 4 25 8 31 9 6 1 49 11 95 22 46
12 95 23 109 26 14 2 32 7 40 10 8 3 44 13 80 21 57 12 174 40 193 46 1 0 11
2 22 4 11 2 77 18 145 35 69 17 139 34 155 37 17 2 34 8 38 12 7 7 32 86 43
139 2 13 18 78 35 145 17 67 40 158 51 202 11 44 21 87 24 95 2 8 10 42 18 75
7 33 64 260 126 505 62 245 113 452 115 460 2 8 22 85 44 171 22 85 42 166 45
180 2 13 14 60 26 104 11 44 23 89 25 100 4 18 40 158 49 195 3 8 10 38 16 65
6 28 13 57 16 65 12 47 75 298 79 315 9 43 76 311 81 325 3 8 6 17 6 20 1 3 5
21 10 40 5 19 11 44 13 56 3 11 21 83 41 160 20 76 38 153 41 169 3 17 8 37
13 45 4 8 11 33 15 55 10 51 10 48 29 124 10 35 16 64 14 66 -2 2 -23 -20 -48
-47z"/>
</g>
</svg>
