<svg width="15" height="18" viewBox="0 0 15 18" fill="none" xmlns="http://www.w3.org/2000/svg">
  <path
    d="M11.6667 1.63636H14.1667C14.3877 1.63636 14.5996 1.72256 14.7559 1.876C14.9122 2.02944 15 2.23755 15 2.45455V17.1818C15 17.3988 14.9122 17.6069 14.7559 17.7604C14.5996 17.9138 14.3877 18 14.1667 18H0.833333C0.61232 18 0.400358 17.9138 0.244078 17.7604C0.0877973 17.6069 0 17.3988 0 17.1818V2.45455C0 2.23755 0.0877973 2.02944 0.244078 1.876C0.400358 1.72256 0.61232 1.63636 0.833333 1.63636H3.33333V0H5V1.63636H10V0H11.6667V1.63636ZM3.33333 6.54545V8.18182H11.6667V6.54545H3.33333ZM3.33333 9.81818V11.4545H11.6667V9.81818H3.33333Z"
    fill="#FF6600" />
</svg>