<svg width="15" height="14" viewBox="0 0 15 14" fill="none" xmlns="http://www.w3.org/2000/svg">
<path d="M2.85714 0V14.0001H0V0H2.85714ZM4.28571 0H11.4321C12.2193 0 12.8571 0.628603 12.8571 1.39301V12.6071C12.8571 13.3764 12.2193 14.0001 11.4321 14.0001H4.28571V0ZM13.5714 2.80001H15V5.60003H13.5714V2.80001ZM13.5714 7.00004H15V9.80005H13.5714V7.00004ZM8.57143 7.00004C8.95031 7.00004 9.31367 6.85253 9.58158 6.58998C9.84949 6.32743 10 5.97133 10 5.60003C10 5.22872 9.84949 4.87263 9.58158 4.61007C9.31367 4.34752 8.95031 4.20002 8.57143 4.20002C8.19255 4.20002 7.82919 4.34752 7.56128 4.61007C7.29337 4.87263 7.14286 5.22872 7.14286 5.60003C7.14286 5.97133 7.29337 6.32743 7.56128 6.58998C7.82919 6.85253 8.19255 7.00004 8.57143 7.00004ZM6.42857 9.80005H10.7143C10.7143 9.24309 10.4885 8.70895 10.0867 8.31512C9.68479 7.92129 9.13975 7.70004 8.57143 7.70004C8.00311 7.70004 7.45806 7.92129 7.0562 8.31512C6.65434 8.70895 6.42857 9.24309 6.42857 9.80005Z" fill="#FF6600"/>
</svg>
