<svg width="15" height="14" viewBox="0 0 15 14" fill="none" xmlns="http://www.w3.org/2000/svg">
<path d="M1.48676 0H11.5979L14.4811 2.88322C14.627 3.02905 14.7089 3.22685 14.709 3.43311V13.2222C14.709 13.4285 14.627 13.6263 14.4812 13.7722C14.3353 13.9181 14.1375 14 13.9312 14H1.48676C1.28048 14 1.08265 13.9181 0.93679 13.7722C0.790929 13.6263 0.708984 13.4285 0.708984 13.2222V0.777778C0.708984 0.571498 0.790929 0.373667 0.93679 0.227806C1.08265 0.0819442 1.28048 0 1.48676 0ZM7.70898 11.6667C8.32782 11.6667 8.92132 11.4208 9.3589 10.9832C9.79649 10.5457 10.0423 9.95217 10.0423 9.33333C10.0423 8.71449 9.79649 8.121 9.3589 7.68342C8.92132 7.24583 8.32782 7 7.70898 7C7.09015 7 6.49665 7.24583 6.05907 7.68342C5.62148 8.121 5.37565 8.71449 5.37565 9.33333C5.37565 9.95217 5.62148 10.5457 6.05907 10.9832C6.49665 11.4208 7.09015 11.6667 7.70898 11.6667ZM2.26454 1.55556V4.66667H10.0423V1.55556H2.26454Z" fill="white"/>
</svg>
