<svg width="21" height="20" viewBox="0 0 21 20" fill="none" xmlns="http://www.w3.org/2000/svg">
<g clip-path="url(#clip0_2335_31362)">
<path d="M19.016 11.6355L17.881 11.4042C17.8567 11.3992 17.8311 11.4042 17.81 11.4177C17.789 11.4315 17.7743 11.4534 17.7694 11.4777C17.658 12.0236 17.4839 12.5599 17.2512 13.0714C17.2231 13.1326 17.194 13.1948 17.1644 13.2556C16.2947 15.0391 14.7825 16.3771 12.9066 17.0228C12.1192 17.2941 11.3033 17.4313 10.4822 17.4313C9.35337 17.4313 8.26006 17.1767 7.23189 16.6753C5.56666 15.8632 4.28543 14.4904 3.60257 12.7933L5.15686 13.5512C5.17943 13.5622 5.20545 13.5639 5.2291 13.5555C5.25275 13.5476 5.27232 13.5304 5.28328 13.5076L5.79113 12.4665C5.81392 12.4195 5.79457 12.3629 5.74748 12.3397L2.31855 10.6676C2.27168 10.645 2.21513 10.6641 2.19212 10.7108L0.865314 13.413C0.862734 13.4179 0.860799 13.4235 0.859294 13.4289L0.824893 13.4991L0.509692 14.1427C0.486686 14.1898 0.506037 14.2464 0.552909 14.2696L0.824893 14.4029L1.59311 14.7794C1.61547 14.7908 1.64171 14.7921 1.66536 14.7839C1.68901 14.7757 1.70857 14.7587 1.71975 14.7359L2.38778 13.3732C2.6718 14.0557 3.03753 14.6964 3.47701 15.2806C4.31511 16.3951 5.37961 17.2719 6.64084 17.8871C7.70534 18.4061 8.84015 18.7013 10.0137 18.7643C10.171 18.7727 10.3308 18.7774 10.4877 18.7774C11.4585 18.7774 12.4196 18.6157 13.345 18.2971C14.4224 17.9262 15.4024 17.3603 16.2579 16.6145C17.1439 15.8426 17.8563 14.9112 18.3757 13.8467C18.4105 13.7749 18.445 13.7018 18.4778 13.6291C18.7524 13.0256 18.9586 12.3924 19.0902 11.7469C19.1005 11.6957 19.0674 11.6456 19.016 11.6355Z" fill="white"/>
<path d="M20.495 5.77551C20.4871 5.75186 20.4699 5.7323 20.4471 5.72112L20.1755 5.58725L19.4082 5.20897C19.3856 5.19779 19.3598 5.19607 19.3359 5.20424C19.3121 5.21241 19.2927 5.22961 19.2813 5.25197L18.5963 6.64221C18.2314 5.75831 17.7279 4.9458 17.0984 4.22445C16.3271 3.34077 15.3972 2.62974 14.3347 2.11157C13.2702 1.59233 12.1353 1.29713 10.9616 1.23413C10.8042 1.22574 10.6447 1.22144 10.4877 1.22144C9.51699 1.22144 8.55569 1.38291 7.6303 1.70156C6.5529 2.07266 5.5729 2.63877 4.71738 3.3842C3.83155 4.15629 3.11902 5.08749 2.59978 6.1522C2.27619 6.81572 2.0371 7.51557 1.88939 8.2324C1.88445 8.25691 1.88918 8.2825 1.90294 8.30357C1.9167 8.32464 1.9382 8.33926 1.96293 8.3442L3.09752 8.57813C3.14869 8.58867 3.19879 8.55577 3.20932 8.5046C3.33446 7.89806 3.53678 7.30529 3.81113 6.74304C4.68083 4.95977 6.19319 3.62178 8.06913 2.9759C8.85649 2.70478 9.67223 2.56739 10.4938 2.56739C11.6221 2.56739 12.7157 2.82174 13.7436 3.32314C15.3875 4.1249 16.6617 5.48353 17.3538 7.16575L15.8408 6.43644C15.7935 6.41387 15.7371 6.43343 15.7144 6.48074L15.2112 7.52438C15.1887 7.57147 15.2084 7.62801 15.2555 7.65059L18.6827 9.30249C18.6963 9.30873 18.7101 9.31174 18.7238 9.31174C18.7586 9.31174 18.7922 9.29239 18.8087 9.25884L20.1755 6.48556L20.4897 5.84818C20.5015 5.82539 20.503 5.79938 20.495 5.77551Z" fill="white"/>
<path fill-rule="evenodd" clip-rule="evenodd" d="M0.824893 14.4029V13.4991L0.859294 13.4289C0.860799 13.4235 0.862734 13.4179 0.865314 13.413L2.19212 10.7108C2.21513 10.6641 2.27168 10.645 2.31855 10.6676L5.74748 12.3397C5.79457 12.3629 5.81392 12.4195 5.79113 12.4665L5.28328 13.5076C5.27232 13.5304 5.25275 13.5476 5.2291 13.5555C5.20545 13.5639 5.17943 13.5622 5.15686 13.5512L3.60257 12.7933C4.28543 14.4904 5.56666 15.8632 7.23189 16.6753C8.26006 17.1767 9.35337 17.4313 10.4822 17.4313C11.3033 17.4313 12.1192 17.2941 12.9066 17.0228C14.7825 16.3771 16.2947 15.0391 17.1644 13.2556C17.194 13.1948 17.2231 13.1326 17.2512 13.0714C17.4839 12.5599 17.658 12.0236 17.7694 11.4777C17.7743 11.4534 17.789 11.4315 17.81 11.4177C17.8311 11.4042 17.8567 11.3992 17.881 11.4042L19.016 11.6355C19.0674 11.6456 19.1005 11.6957 19.0902 11.7469C18.9586 12.3924 18.7524 13.0256 18.4778 13.6291C18.445 13.7018 18.4105 13.7749 18.3757 13.8467C17.8563 14.9112 17.1439 15.8426 16.2579 16.6145C15.4024 17.3603 14.4224 17.9262 13.345 18.2971C12.4196 18.6157 11.4585 18.7774 10.4877 18.7774C10.3308 18.7774 10.171 18.7727 10.0137 18.7643C8.84015 18.7013 7.70534 18.4061 6.64084 17.8871C5.37961 17.2719 4.31511 16.3951 3.47701 15.2806C3.03753 14.6964 2.6718 14.0557 2.38778 13.3732L1.71975 14.7359C1.70857 14.7587 1.68901 14.7757 1.66536 14.7839C1.64171 14.7921 1.61547 14.7908 1.59311 14.7794L0.824893 14.4029ZM20.1755 6.48556V5.58725L19.4082 5.20897C19.3856 5.19779 19.3598 5.19607 19.3359 5.20424C19.3121 5.21241 19.2927 5.22961 19.2813 5.25197L18.5963 6.64221C18.2314 5.75831 17.7279 4.9458 17.0984 4.22445C16.3271 3.34077 15.3972 2.62974 14.3347 2.11157C13.2702 1.59233 12.1353 1.29713 10.9616 1.23413C10.8042 1.22574 10.6447 1.22144 10.4877 1.22144C9.51699 1.22144 8.55569 1.38291 7.6303 1.70156C6.5529 2.07266 5.5729 2.63877 4.71738 3.3842C3.83155 4.15629 3.11902 5.08749 2.59978 6.1522C2.27619 6.81572 2.0371 7.51557 1.88939 8.2324C1.88445 8.25691 1.88918 8.2825 1.90294 8.30357C1.9167 8.32464 1.9382 8.33926 1.96293 8.3442L3.09752 8.57813C3.14869 8.58867 3.19879 8.55577 3.20932 8.5046C3.33446 7.89806 3.53678 7.30529 3.81113 6.74304C4.68083 4.95977 6.19319 3.62178 8.06913 2.9759C8.85649 2.70478 9.67223 2.56739 10.4938 2.56739C11.6221 2.56739 12.7157 2.82174 13.7436 3.32314C15.3875 4.1249 16.6617 5.48353 17.3538 7.16575L15.8408 6.43644C15.7935 6.41387 15.7371 6.43343 15.7144 6.48074L15.2112 7.52438C15.1887 7.57147 15.2084 7.62801 15.2555 7.65059L18.6827 9.30249C18.6963 9.30873 18.7101 9.31174 18.7238 9.31174C18.7586 9.31174 18.7922 9.29239 18.8087 9.25884L20.1755 6.48556Z" fill="white"/>
</g>
<defs>
<clipPath id="clip0_2335_31362">
<rect width="20" height="19.3507" fill="white" transform="translate(0.5 0.324219)"/>
</clipPath>
</defs>
</svg>
