<svg width="15" height="14" viewBox="0 0 15 14" fill="none" xmlns="http://www.w3.org/2000/svg">
<path d="M6.8821 0C6.60796 0 6.36977 0.18042 6.31747 0.432528L6.06179 1.62571C5.4836 1.75984 4.93619 1.97288 4.42649 2.26207L3.3505 1.58594C3.12313 1.44339 2.81465 1.47562 2.62074 1.65554L1.76314 2.45597C1.5693 2.63689 1.53535 2.92445 1.68857 3.13707L2.41832 4.15128C2.1115 4.62723 1.88305 5.13841 1.74183 5.67756L0.46875 5.91122C0.198107 5.95959 0 6.18234 0 6.43821V7.57173C0 7.8276 0.199616 8.05452 0.46875 8.10369L1.74716 8.33736C1.89037 8.87591 2.12013 9.38853 2.42898 9.86364L1.70455 10.8729C1.55136 11.0855 1.57995 11.373 1.77379 11.554L2.63139 12.3544C2.82525 12.5354 3.13869 12.562 3.36648 12.419L4.4478 11.7429C4.95765 12.0294 5.50563 12.2425 6.0831 12.3743L6.33345 13.5625C6.38671 13.8132 6.62919 14 6.90341 14H8.1179C8.39192 14 8.63031 13.8142 8.68253 13.5625L8.93288 12.3693C9.51137 12.2356 10.0581 12.0219 10.5682 11.733L11.6495 12.4091C11.8778 12.5528 12.185 12.5214 12.3793 12.3395L13.2369 11.5391C13.4307 11.3581 13.4647 11.0706 13.3114 10.858L12.5817 9.84375C12.8876 9.36917 13.1169 8.85976 13.2582 8.32244L14.5312 8.08381C14.8005 8.03466 15 7.81268 15 7.55682V6.4233C14.9996 6.16767 14.8008 5.94059 14.5312 5.89134L13.2528 5.65767C13.1092 5.11806 12.8808 4.60732 12.571 4.13139L13.2955 3.12713C13.4487 2.91451 13.42 2.62198 13.2262 2.44105L12.3686 1.64063C12.1749 1.45979 11.8608 1.43334 11.6335 1.57599L10.5575 2.2571C10.0451 1.96796 9.4978 1.75834 8.9169 1.62571L8.66655 0.432528C8.61425 0.180928 8.37121 0 8.09659 0H6.8821ZM6.96733 0.636364H8.01136L8.28302 1.93395C8.29635 1.99522 8.32871 2.05147 8.37608 2.09568C8.42344 2.13989 8.48371 2.1701 8.54936 2.18253C9.20828 2.30682 9.8246 2.54281 10.3871 2.88849C10.4431 2.92333 10.5089 2.94192 10.5762 2.94192C10.6435 2.94192 10.7093 2.92333 10.7653 2.88849L11.9425 2.14773L12.6829 2.83878L11.8945 3.93253C11.8564 3.9843 11.8356 4.04545 11.8346 4.10827C11.8337 4.17108 11.8527 4.23275 11.8892 4.28551C12.2617 4.80956 12.5206 5.3866 12.6562 6.00071C12.6705 6.06107 12.7033 6.11625 12.7506 6.15951C12.7979 6.20277 12.8576 6.23224 12.9226 6.24432L14.3182 6.50284V7.47727L12.9279 7.73082C12.8623 7.74326 12.802 7.77346 12.7546 7.81767C12.7073 7.86188 12.6749 7.91813 12.6616 7.9794C12.5284 8.59416 12.27 9.16956 11.8999 9.6946C11.8633 9.74736 11.8443 9.80903 11.8453 9.87185C11.8462 9.93466 11.8671 9.99581 11.9052 10.0476L12.6989 11.1463L11.9585 11.8374L10.7812 11.0966C10.7252 11.0618 10.6595 11.0432 10.5922 11.0432C10.5249 11.0432 10.4591 11.0618 10.4031 11.0966C9.84191 11.4441 9.22894 11.6809 8.57067 11.8075C8.5043 11.8203 8.44352 11.8512 8.39609 11.8964C8.34865 11.9416 8.3167 11.9989 8.30433 12.0611L8.03267 13.3636H6.98864L6.71697 12.0661C6.7046 12.0039 6.67266 11.9465 6.62522 11.9014C6.57778 11.8562 6.517 11.8253 6.45064 11.8125C5.79171 11.6882 5.1754 11.4522 4.61293 11.1065C4.55692 11.0717 4.49113 11.0531 4.42383 11.0531C4.35653 11.0531 4.29073 11.0717 4.23473 11.1065L3.0522 11.8473L2.31712 11.1563L3.10547 10.0625C3.14359 10.0107 3.16444 9.94958 3.16538 9.88676C3.16633 9.82395 3.14734 9.76227 3.1108 9.70952C2.73834 9.18546 2.47912 8.61337 2.34375 7.99929C2.33043 7.93802 2.29807 7.88177 2.2507 7.83756C2.20333 7.79335 2.14306 7.76314 2.07741 7.75071L0.681818 7.49219V6.52273L2.07209 6.2642C2.13774 6.25177 2.19801 6.22157 2.24537 6.17736C2.29274 6.13315 2.3251 6.0769 2.33842 6.01563C2.47158 5.40067 2.72995 4.82547 3.10014 4.30043C3.13556 4.2482 3.15392 4.18748 3.15297 4.12568C3.15203 4.06388 3.13182 4.00367 3.09482 3.95242L2.30114 2.84872L3.04155 2.15767L4.21875 2.89844C4.27475 2.93328 4.34055 2.95187 4.40785 2.95187C4.47515 2.95187 4.54094 2.93328 4.59695 2.89844C5.15814 2.55084 5.77113 2.31407 6.42933 2.1875C6.4957 2.17472 6.55648 2.14378 6.60391 2.09862C6.65135 2.05346 6.68329 1.99613 6.69567 1.93395L6.96733 0.636364ZM7.5 3.67401C5.53954 3.67401 3.93643 5.17022 3.93643 7C3.93643 8.8298 5.53954 10.321 7.5 10.321C9.46046 10.321 11.0582 8.8298 11.0582 7C11.0582 5.17022 9.46046 3.67401 7.5 3.67401ZM7.5 4.31037C9.09066 4.31037 10.3764 5.51536 10.3764 7C10.3764 8.48467 9.09066 9.68466 7.5 9.68466C5.90934 9.68466 4.61825 8.48467 4.61825 7C4.61825 5.51536 5.90934 4.31037 7.5 4.31037Z" fill="#FF6600"/>
<path fill-rule="evenodd" clip-rule="evenodd" d="M6.96733 0.636364H8.01136L8.28302 1.93395C8.29635 1.99522 8.32871 2.05147 8.37608 2.09568C8.42344 2.13989 8.48371 2.1701 8.54936 2.18253C9.20828 2.30682 9.8246 2.54281 10.3871 2.88849C10.4431 2.92333 10.5089 2.94192 10.5762 2.94192C10.6435 2.94192 10.7093 2.92333 10.7653 2.88849L11.9425 2.14773L12.6829 2.83878L11.8945 3.93253C11.8564 3.9843 11.8356 4.04545 11.8346 4.10827C11.8337 4.17108 11.8527 4.23275 11.8892 4.28551C12.2617 4.80956 12.5206 5.3866 12.6562 6.00071C12.6705 6.06107 12.7033 6.11625 12.7506 6.15951C12.7979 6.20277 12.8576 6.23224 12.9226 6.24432L14.3182 6.50284V7.47727L12.9279 7.73082C12.8623 7.74326 12.802 7.77346 12.7546 7.81767C12.7073 7.86188 12.6749 7.91813 12.6616 7.9794C12.5284 8.59416 12.27 9.16956 11.8999 9.6946C11.8633 9.74736 11.8443 9.80903 11.8453 9.87185C11.8462 9.93466 11.8671 9.99581 11.9052 10.0476L12.6989 11.1463L11.9585 11.8374L10.7812 11.0966C10.7252 11.0618 10.6595 11.0432 10.5922 11.0432C10.5249 11.0432 10.4591 11.0618 10.4031 11.0966C9.84191 11.4441 9.22894 11.6809 8.57067 11.8075C8.5043 11.8203 8.44352 11.8512 8.39609 11.8964C8.34865 11.9416 8.3167 11.9989 8.30433 12.0611L8.03267 13.3636H6.98864L6.71697 12.0661C6.7046 12.0039 6.67266 11.9465 6.62522 11.9014C6.57778 11.8562 6.517 11.8253 6.45064 11.8125C5.79171 11.6882 5.1754 11.4522 4.61293 11.1065C4.55692 11.0717 4.49113 11.0531 4.42383 11.0531C4.35653 11.0531 4.29073 11.0717 4.23473 11.1065L3.0522 11.8473L2.31712 11.1563L3.10547 10.0625C3.14359 10.0107 3.16444 9.94958 3.16538 9.88676C3.16633 9.82395 3.14734 9.76227 3.1108 9.70952C2.73834 9.18546 2.47912 8.61337 2.34375 7.99929C2.33043 7.93802 2.29807 7.88177 2.2507 7.83756C2.20333 7.79335 2.14306 7.76314 2.07741 7.75071L0.681818 7.49219V6.52273L2.07209 6.2642C2.13774 6.25177 2.19801 6.22157 2.24537 6.17736C2.29274 6.13315 2.3251 6.0769 2.33842 6.01563C2.47158 5.40067 2.72995 4.82547 3.10014 4.30043C3.13556 4.2482 3.15392 4.18748 3.15297 4.12568C3.15203 4.06388 3.13182 4.00367 3.09482 3.95242L2.30114 2.84872L3.04155 2.15767L4.21875 2.89844C4.27475 2.93328 4.34055 2.95187 4.40785 2.95187C4.47515 2.95187 4.54094 2.93328 4.59695 2.89844C5.15814 2.55084 5.77113 2.31407 6.42933 2.1875C6.4957 2.17472 6.55648 2.14378 6.60391 2.09862C6.65135 2.05346 6.68329 1.99613 6.69567 1.93395L6.96733 0.636364ZM3.93643 7C3.93643 5.17022 5.53954 3.67401 7.5 3.67401C9.46046 3.67401 11.0582 5.17022 11.0582 7C11.0582 8.8298 9.46046 10.321 7.5 10.321C5.53954 10.321 3.93643 8.8298 3.93643 7Z" fill="#FF6600"/>
</svg>
