<svg width="15" height="18" viewBox="0 0 15 18" fill="none" xmlns="http://www.w3.org/2000/svg">
<path d="M12.8033 12.7279L7.5 18L2.19667 12.7279C1.14779 11.6852 0.433489 10.3567 0.144107 8.91037C-0.145275 7.46408 0.0032557 5.96497 0.570915 4.60259C1.13858 3.24022 2.09987 2.07578 3.33323 1.25653C4.5666 0.437275 6.01664 0 7.5 0C8.98336 0 10.4334 0.437275 11.6668 1.25653C12.9001 2.07578 13.8614 3.24022 14.4291 4.60259C14.9967 5.96497 15.1453 7.46408 14.8559 8.91037C14.5665 10.3567 13.8522 11.6852 12.8033 12.7279ZM7.5 9.11263C7.94203 9.11263 8.36595 8.93807 8.67851 8.62735C8.99107 8.31663 9.16667 7.8952 9.16667 7.45578C9.16667 7.01635 8.99107 6.59493 8.67851 6.28421C8.36595 5.97349 7.94203 5.79893 7.5 5.79893C7.05797 5.79893 6.63405 5.97349 6.32149 6.28421C6.00893 6.59493 5.83333 7.01635 5.83333 7.45578C5.83333 7.8952 6.00893 8.31663 6.32149 8.62735C6.63405 8.93807 7.05797 9.11263 7.5 9.11263Z" fill="#FF6600"/>
</svg>
