<svg width="16" height="14" viewBox="0 0 16 14" fill="none" xmlns="http://www.w3.org/2000/svg">
<path d="M9.40267 12.3609C9.40267 12.5869 9.21524 12.7707 8.98477 12.7707H1.67159C1.44112 12.7707 1.25369 12.5869 1.25369 12.3609V1.63906C1.25369 1.41307 1.44112 1.22929 1.67159 1.22929H8.98477C9.21524 1.22929 9.40267 1.41307 9.40267 1.63906V4.80879H10.6564V1.63906C10.6564 0.735322 9.90644 0 8.98477 0H1.67159C0.749915 0 0 0.735322 0 1.63906V12.3609C0 13.2647 0.749915 14 1.67159 14H8.98477C9.90644 14 10.6564 13.2647 10.6564 12.3609V9.19121H9.40267V12.3609ZM12.5528 3.61986L11.6664 4.48897L13.6002 6.38535H4.45728V7.61465H13.6006L11.6664 9.51124L12.5528 10.3803L16 7.0002L12.5528 3.61986Z" fill="#FF6600"/>
</svg>
