<svg width="17" height="19" viewBox="0 0 17 19" fill="none" xmlns="http://www.w3.org/2000/svg">
<path d="M16.0556 19H0.944444C0.693962 19 0.453739 18.8999 0.276621 18.7218C0.0995036 18.5436 0 18.302 0 18.05V0.95C0 0.698044 0.0995036 0.456408 0.276621 0.278249C0.453739 0.100089 0.693962 0 0.944444 0H16.0556C16.306 0 16.5463 0.100089 16.7234 0.278249C16.9005 0.456408 17 0.698044 17 0.95V18.05C17 18.302 16.9005 18.5436 16.7234 18.7218C16.5463 18.8999 16.306 19 16.0556 19ZM3.77778 3.8V7.6H7.55556V3.8H3.77778ZM3.77778 9.5V11.4H13.2222V9.5H3.77778ZM3.77778 13.3V15.2H13.2222V13.3H3.77778ZM9.44444 4.75V6.65H13.2222V4.75H9.44444Z" fill="#FF6600"/>
</svg>
