<svg xmlns="http://www.w3.org/2000/svg">
    <symbol id="icon-logo" viewBox="0 0 19 34" fill="none" xmlns="http://www.w3.org/2000/svg">
        <path d="M4.19026 27.3109L9.17537 6.45456H13.9886L18.9737 27.3109L11.4674 33.2698L4.19026 27.3109Z"
            fill="#FF6600" />
        <path
            d="M13.9886 5.18552H9.17537L7.39907 2.5371C6.90362 1.59003 8.02011 0.720558 8.77824 0.661133H14.4414C15.1382 0.661133 15.9921 1.83576 15.593 2.5371L13.9886 5.18552Z"
            fill="#FF6600" />
        <path d="M0 21.0469V16.2789L7.88586 7.73191L4.84155 19.8814L0 21.0469Z" fill="#FF6600" />
        <path
            d="M7.39898 2.5371C6.90353 1.59003 8.02003 0.720558 8.77815 0.661133H11.6097L11.5819 5.18552H9.17528L7.39898 2.5371Z"
            fill="url(#paint0_linear_2335_31211)" />
        <path d="M11.4561 6.45508H13.9862L16.2556 15.9242L11.4561 20.6714V6.45508Z"
            fill="url(#paint1_linear_2335_31211)" />
        <path fill-rule="evenodd" clip-rule="evenodd"
            d="M5.78633 20.5268L5.39742 22.1539C8.65838 18.9811 15.2193 12.5806 15.3752 12.3613L15.1803 11.546L5.78633 20.5268ZM13.9632 6.4541L14.228 7.56175L7.31313 14.1391L7.62406 12.8383L13.9632 6.4541ZM16.2854 16.1695L4.43652 27.5328L5.14841 28.1158L16.5366 17.2203L16.2854 16.1695ZM8.36604 30.7506L7.67126 30.1606L17.4109 20.8783L17.6816 22.0105L8.36604 30.7506Z"
            fill="white" />
        <defs>
            <linearGradient id="paint0_linear_2335_31211" x1="9.44304" y1="5.18552" x2="13.0576" y2="2.82559"
                gradientUnits="userSpaceOnUse">
                <stop stop-color="#EA7438" stop-opacity="0" />
                <stop offset="1" stop-color="#EA8D38" />
            </linearGradient>
            <linearGradient id="paint1_linear_2335_31211" x1="11.4561" y1="20.6714" x2="16.2538" y2="21.0175"
                gradientUnits="userSpaceOnUse">
                <stop stop-color="#EAB838" />
                <stop offset="1" stop-color="#EA7438" stop-opacity="0" />
            </linearGradient>
        </defs>
    </symbol>
    <symbol id="icon-exit" viewBox="0 0 16 14" fill="none" xmlns="http://www.w3.org/2000/svg">
        <path
            d="M9.40267 12.3609C9.40267 12.5869 9.21524 12.7707 8.98477 12.7707H1.67159C1.44112 12.7707 1.25369 12.5869 1.25369 12.3609V1.63906C1.25369 1.41307 1.44112 1.22929 1.67159 1.22929H8.98477C9.21524 1.22929 9.40267 1.41307 9.40267 1.63906V4.80879H10.6564V1.63906C10.6564 0.735322 9.90644 0 8.98477 0H1.67159C0.749915 0 0 0.735322 0 1.63906V12.3609C0 13.2647 0.749915 14 1.67159 14H8.98477C9.90644 14 10.6564 13.2647 10.6564 12.3609V9.19121H9.40267V12.3609ZM12.5528 3.61986L11.6664 4.48897L13.6002 6.38535H4.45728V7.61465H13.6006L11.6664 9.51124L12.5528 10.3803L16 7.0002L12.5528 3.61986Z"
            fill="#FF6600" />
    </symbol>
    <symbol id="icon-squares" viewBox="0 0 15 14" fill="none" xmlns="http://www.w3.org/2000/svg">
        <path
            d="M15 7.49925V12.75C15 12.9489 14.921 13.1397 14.7803 13.2803C14.6397 13.421 14.4489 13.5 14.25 13.5H8.25V7.49925H15ZM6.75 7.49925V13.5H0.75C0.551088 13.5 0.360322 13.421 0.21967 13.2803C0.0790176 13.1397 0 12.9489 0 12.75V7.49925H6.75ZM6.75 0V5.99925H0V0.75C0 0.551088 0.0790176 0.360322 0.21967 0.21967C0.360322 0.0790176 0.551088 0 0.75 0H6.75ZM14.25 0C14.4489 0 14.6397 0.0790176 14.7803 0.21967C14.921 0.360322 15 0.551088 15 0.75V5.99925H8.25V0H14.25Z"
            fill="currentColor" />
    </symbol>
    <symbol id="icon-list" viewBox="0 0 15 18" fill="none" xmlns="http://www.w3.org/2000/svg">
        <path
            d="M11.6667 1.63636H14.1667C14.3877 1.63636 14.5996 1.72256 14.7559 1.876C14.9122 2.02944 15 2.23755 15 2.45455V17.1818C15 17.3988 14.9122 17.6069 14.7559 17.7604C14.5996 17.9138 14.3877 18 14.1667 18H0.833333C0.61232 18 0.400358 17.9138 0.244078 17.7604C0.0877973 17.6069 0 17.3988 0 17.1818V2.45455C0 2.23755 0.0877973 2.02944 0.244078 1.876C0.400358 1.72256 0.61232 1.63636 0.833333 1.63636H3.33333V0H5V1.63636H10V0H11.6667V1.63636ZM3.33333 6.54545V8.18182H11.6667V6.54545H3.33333ZM3.33333 9.81818V11.4545H11.6667V9.81818H3.33333Z"
            fill="currentColor" />
    </symbol>
    <symbol id="icon-contacts" viewBox="0 0 15 14" fill="none" xmlns="http://www.w3.org/2000/svg">
        <path
            d="M2.85714 0V14.0001H0V0H2.85714ZM4.28571 0H11.4321C12.2193 0 12.8571 0.628603 12.8571 1.39301V12.6071C12.8571 13.3764 12.2193 14.0001 11.4321 14.0001H4.28571V0ZM13.5714 2.80001H15V5.60003H13.5714V2.80001ZM13.5714 7.00004H15V9.80005H13.5714V7.00004ZM8.57143 7.00004C8.95031 7.00004 9.31367 6.85253 9.58158 6.58998C9.84949 6.32743 10 5.97133 10 5.60003C10 5.22872 9.84949 4.87263 9.58158 4.61007C9.31367 4.34752 8.95031 4.20002 8.57143 4.20002C8.19255 4.20002 7.82919 4.34752 7.56128 4.61007C7.29337 4.87263 7.14286 5.22872 7.14286 5.60003C7.14286 5.97133 7.29337 6.32743 7.56128 6.58998C7.82919 6.85253 8.19255 7.00004 8.57143 7.00004ZM6.42857 9.80005H10.7143C10.7143 9.24309 10.4885 8.70895 10.0867 8.31512C9.68479 7.92129 9.13975 7.70004 8.57143 7.70004C8.00311 7.70004 7.45806 7.92129 7.0562 8.31512C6.65434 8.70895 6.42857 9.24309 6.42857 9.80005Z"
            fill="currentColor" />
    </symbol>
    <symbol id="icon-alert" viewBox="0 0 15 16" fill="none" xmlns="http://www.w3.org/2000/svg">
        <path
            d="M15 13.3953H0V11.907H0.75V6.72074C0.75 3.00874 3.7725 0 7.5 0C11.2275 0 14.25 3.00874 14.25 6.72074V11.907H15V13.3953ZM5.625 14.1395H9.375C9.375 14.633 9.17746 15.1062 8.82582 15.4551C8.47419 15.804 7.99728 16 7.5 16C7.00272 16 6.52581 15.804 6.17417 15.4551C5.82254 15.1062 5.625 14.633 5.625 14.1395Z"
            fill="currentColor" />
    </symbol>
    <symbol id="icon-locations" viewBox="0 0 15 18" fill="none" xmlns="http://www.w3.org/2000/svg">
        <path
            d="M12.8033 12.7279L7.5 18L2.19667 12.7279C1.14779 11.6852 0.433489 10.3567 0.144107 8.91037C-0.145275 7.46408 0.0032557 5.96497 0.570915 4.60259C1.13858 3.24022 2.09987 2.07578 3.33323 1.25653C4.5666 0.437275 6.01664 0 7.5 0C8.98336 0 10.4334 0.437275 11.6668 1.25653C12.9001 2.07578 13.8614 3.24022 14.4291 4.60259C14.9967 5.96497 15.1453 7.46408 14.8559 8.91037C14.5665 10.3567 13.8522 11.6852 12.8033 12.7279ZM7.5 9.11263C7.94203 9.11263 8.36595 8.93807 8.67851 8.62735C8.99107 8.31663 9.16667 7.8952 9.16667 7.45578C9.16667 7.01635 8.99107 6.59493 8.67851 6.28421C8.36595 5.97349 7.94203 5.79893 7.5 5.79893C7.05797 5.79893 6.63405 5.97349 6.32149 6.28421C6.00893 6.59493 5.83333 7.01635 5.83333 7.45578C5.83333 7.8952 6.00893 8.31663 6.32149 8.62735C6.63405 8.93807 7.05797 9.11263 7.5 9.11263Z"
            fill="currentColor" />
    </symbol>
    <symbol id="icon-settings" viewBox="0 0 15 14" fill="none" xmlns="http://www.w3.org/2000/svg">
        <path
            d="M6.8821 0C6.60796 0 6.36977 0.18042 6.31747 0.432528L6.06179 1.62571C5.4836 1.75984 4.93619 1.97288 4.42649 2.26207L3.3505 1.58594C3.12313 1.44339 2.81465 1.47562 2.62074 1.65554L1.76314 2.45597C1.5693 2.63689 1.53535 2.92445 1.68857 3.13707L2.41832 4.15128C2.1115 4.62723 1.88305 5.13841 1.74183 5.67756L0.46875 5.91122C0.198107 5.95959 0 6.18234 0 6.43821V7.57173C0 7.8276 0.199616 8.05452 0.46875 8.10369L1.74716 8.33736C1.89037 8.87591 2.12013 9.38853 2.42898 9.86364L1.70455 10.8729C1.55136 11.0855 1.57995 11.373 1.77379 11.554L2.63139 12.3544C2.82525 12.5354 3.13869 12.562 3.36648 12.419L4.4478 11.7429C4.95765 12.0294 5.50563 12.2425 6.0831 12.3743L6.33345 13.5625C6.38671 13.8132 6.62919 14 6.90341 14H8.1179C8.39192 14 8.63031 13.8142 8.68253 13.5625L8.93288 12.3693C9.51137 12.2356 10.0581 12.0219 10.5682 11.733L11.6495 12.4091C11.8778 12.5528 12.185 12.5214 12.3793 12.3395L13.2369 11.5391C13.4307 11.3581 13.4647 11.0706 13.3114 10.858L12.5817 9.84375C12.8876 9.36917 13.1169 8.85976 13.2582 8.32244L14.5312 8.08381C14.8005 8.03466 15 7.81268 15 7.55682V6.4233C14.9996 6.16767 14.8008 5.94059 14.5312 5.89134L13.2528 5.65767C13.1092 5.11806 12.8808 4.60732 12.571 4.13139L13.2955 3.12713C13.4487 2.91451 13.42 2.62198 13.2262 2.44105L12.3686 1.64063C12.1749 1.45979 11.8608 1.43334 11.6335 1.57599L10.5575 2.2571C10.0451 1.96796 9.4978 1.75834 8.9169 1.62571L8.66655 0.432528C8.61425 0.180928 8.37121 0 8.09659 0H6.8821ZM6.96733 0.636364H8.01136L8.28302 1.93395C8.29635 1.99522 8.32871 2.05147 8.37608 2.09568C8.42344 2.13989 8.48371 2.1701 8.54936 2.18253C9.20828 2.30682 9.8246 2.54281 10.3871 2.88849C10.4431 2.92333 10.5089 2.94192 10.5762 2.94192C10.6435 2.94192 10.7093 2.92333 10.7653 2.88849L11.9425 2.14773L12.6829 2.83878L11.8945 3.93253C11.8564 3.9843 11.8356 4.04545 11.8346 4.10827C11.8337 4.17108 11.8527 4.23275 11.8892 4.28551C12.2617 4.80956 12.5206 5.3866 12.6562 6.00071C12.6705 6.06107 12.7033 6.11625 12.7506 6.15951C12.7979 6.20277 12.8576 6.23224 12.9226 6.24432L14.3182 6.50284V7.47727L12.9279 7.73082C12.8623 7.74326 12.802 7.77346 12.7546 7.81767C12.7073 7.86188 12.6749 7.91813 12.6616 7.9794C12.5284 8.59416 12.27 9.16956 11.8999 9.6946C11.8633 9.74736 11.8443 9.80903 11.8453 9.87185C11.8462 9.93466 11.8671 9.99581 11.9052 10.0476L12.6989 11.1463L11.9585 11.8374L10.7812 11.0966C10.7252 11.0618 10.6595 11.0432 10.5922 11.0432C10.5249 11.0432 10.4591 11.0618 10.4031 11.0966C9.84191 11.4441 9.22894 11.6809 8.57067 11.8075C8.5043 11.8203 8.44352 11.8512 8.39609 11.8964C8.34865 11.9416 8.3167 11.9989 8.30433 12.0611L8.03267 13.3636H6.98864L6.71697 12.0661C6.7046 12.0039 6.67266 11.9465 6.62522 11.9014C6.57778 11.8562 6.517 11.8253 6.45064 11.8125C5.79171 11.6882 5.1754 11.4522 4.61293 11.1065C4.55692 11.0717 4.49113 11.0531 4.42383 11.0531C4.35653 11.0531 4.29073 11.0717 4.23473 11.1065L3.0522 11.8473L2.31712 11.1563L3.10547 10.0625C3.14359 10.0107 3.16444 9.94958 3.16538 9.88676C3.16633 9.82395 3.14734 9.76227 3.1108 9.70952C2.73834 9.18546 2.47912 8.61337 2.34375 7.99929C2.33043 7.93802 2.29807 7.88177 2.2507 7.83756C2.20333 7.79335 2.14306 7.76314 2.07741 7.75071L0.681818 7.49219V6.52273L2.07209 6.2642C2.13774 6.25177 2.19801 6.22157 2.24537 6.17736C2.29274 6.13315 2.3251 6.0769 2.33842 6.01563C2.47158 5.40067 2.72995 4.82547 3.10014 4.30043C3.13556 4.2482 3.15392 4.18748 3.15297 4.12568C3.15203 4.06388 3.13182 4.00367 3.09482 3.95242L2.30114 2.84872L3.04155 2.15767L4.21875 2.89844C4.27475 2.93328 4.34055 2.95187 4.40785 2.95187C4.47515 2.95187 4.54094 2.93328 4.59695 2.89844C5.15814 2.55084 5.77113 2.31407 6.42933 2.1875C6.4957 2.17472 6.55648 2.14378 6.60391 2.09862C6.65135 2.05346 6.68329 1.99613 6.69567 1.93395L6.96733 0.636364ZM7.5 3.67401C5.53954 3.67401 3.93643 5.17022 3.93643 7C3.93643 8.8298 5.53954 10.321 7.5 10.321C9.46046 10.321 11.0582 8.8298 11.0582 7C11.0582 5.17022 9.46046 3.67401 7.5 3.67401ZM7.5 4.31037C9.09066 4.31037 10.3764 5.51536 10.3764 7C10.3764 8.48467 9.09066 9.68466 7.5 9.68466C5.90934 9.68466 4.61825 8.48467 4.61825 7C4.61825 5.51536 5.90934 4.31037 7.5 4.31037Z"
            fill="currentColor" />
        <path fill-rule="evenodd" clip-rule="evenodd"
            d="M6.96733 0.636364H8.01136L8.28302 1.93395C8.29635 1.99522 8.32871 2.05147 8.37608 2.09568C8.42344 2.13989 8.48371 2.1701 8.54936 2.18253C9.20828 2.30682 9.8246 2.54281 10.3871 2.88849C10.4431 2.92333 10.5089 2.94192 10.5762 2.94192C10.6435 2.94192 10.7093 2.92333 10.7653 2.88849L11.9425 2.14773L12.6829 2.83878L11.8945 3.93253C11.8564 3.9843 11.8356 4.04545 11.8346 4.10827C11.8337 4.17108 11.8527 4.23275 11.8892 4.28551C12.2617 4.80956 12.5206 5.3866 12.6562 6.00071C12.6705 6.06107 12.7033 6.11625 12.7506 6.15951C12.7979 6.20277 12.8576 6.23224 12.9226 6.24432L14.3182 6.50284V7.47727L12.9279 7.73082C12.8623 7.74326 12.802 7.77346 12.7546 7.81767C12.7073 7.86188 12.6749 7.91813 12.6616 7.9794C12.5284 8.59416 12.27 9.16956 11.8999 9.6946C11.8633 9.74736 11.8443 9.80903 11.8453 9.87185C11.8462 9.93466 11.8671 9.99581 11.9052 10.0476L12.6989 11.1463L11.9585 11.8374L10.7812 11.0966C10.7252 11.0618 10.6595 11.0432 10.5922 11.0432C10.5249 11.0432 10.4591 11.0618 10.4031 11.0966C9.84191 11.4441 9.22894 11.6809 8.57067 11.8075C8.5043 11.8203 8.44352 11.8512 8.39609 11.8964C8.34865 11.9416 8.3167 11.9989 8.30433 12.0611L8.03267 13.3636H6.98864L6.71697 12.0661C6.7046 12.0039 6.67266 11.9465 6.62522 11.9014C6.57778 11.8562 6.517 11.8253 6.45064 11.8125C5.79171 11.6882 5.1754 11.4522 4.61293 11.1065C4.55692 11.0717 4.49113 11.0531 4.42383 11.0531C4.35653 11.0531 4.29073 11.0717 4.23473 11.1065L3.0522 11.8473L2.31712 11.1563L3.10547 10.0625C3.14359 10.0107 3.16444 9.94958 3.16538 9.88676C3.16633 9.82395 3.14734 9.76227 3.1108 9.70952C2.73834 9.18546 2.47912 8.61337 2.34375 7.99929C2.33043 7.93802 2.29807 7.88177 2.2507 7.83756C2.20333 7.79335 2.14306 7.76314 2.07741 7.75071L0.681818 7.49219V6.52273L2.07209 6.2642C2.13774 6.25177 2.19801 6.22157 2.24537 6.17736C2.29274 6.13315 2.3251 6.0769 2.33842 6.01563C2.47158 5.40067 2.72995 4.82547 3.10014 4.30043C3.13556 4.2482 3.15392 4.18748 3.15297 4.12568C3.15203 4.06388 3.13182 4.00367 3.09482 3.95242L2.30114 2.84872L3.04155 2.15767L4.21875 2.89844C4.27475 2.93328 4.34055 2.95187 4.40785 2.95187C4.47515 2.95187 4.54094 2.93328 4.59695 2.89844C5.15814 2.55084 5.77113 2.31407 6.42933 2.1875C6.4957 2.17472 6.55648 2.14378 6.60391 2.09862C6.65135 2.05346 6.68329 1.99613 6.69567 1.93395L6.96733 0.636364ZM3.93643 7C3.93643 5.17022 5.53954 3.67401 7.5 3.67401C9.46046 3.67401 11.0582 5.17022 11.0582 7C11.0582 8.8298 9.46046 10.321 7.5 10.321C5.53954 10.321 3.93643 8.8298 3.93643 7Z"
            fill="currentColor" />
    </symbol>
    <symbol id="icon-arrow-left" viewBox="0 0 8 11" fill="none" xmlns="http://www.w3.org/2000/svg">
        <path d="M2.25 3.83333L7.5 8.83333L5.75 10.5L0.5 5.5L2.25 3.83333Z" fill="#FF6600" />
        <path d="M0.5 5.5L5.75 0.5L7.5 2.16667L2.25 7.16667L0.5 5.5Z" fill="#FF6600" />
    </symbol>
    <symbol id="icon-update" viewBox="0 0 21 20" fill="none" xmlns="http://www.w3.org/2000/svg">
        <path
            d="M19.016 11.6355L17.881 11.4042C17.8567 11.3992 17.8311 11.4042 17.81 11.4177C17.789 11.4315 17.7743 11.4534 17.7694 11.4777C17.658 12.0236 17.4839 12.5599 17.2512 13.0714C17.2231 13.1326 17.194 13.1948 17.1644 13.2556C16.2947 15.0391 14.7825 16.3771 12.9066 17.0228C12.1192 17.2941 11.3033 17.4313 10.4822 17.4313C9.35337 17.4313 8.26006 17.1767 7.23189 16.6753C5.56666 15.8632 4.28543 14.4904 3.60257 12.7933L5.15686 13.5512C5.17943 13.5622 5.20545 13.5639 5.2291 13.5555C5.25275 13.5476 5.27232 13.5304 5.28328 13.5076L5.79113 12.4665C5.81392 12.4195 5.79457 12.3629 5.74748 12.3397L2.31855 10.6676C2.27168 10.645 2.21513 10.6641 2.19212 10.7108L0.865314 13.413C0.862734 13.4179 0.860799 13.4235 0.859294 13.4289L0.824893 13.4991L0.509692 14.1427C0.486686 14.1898 0.506037 14.2464 0.552909 14.2696L0.824893 14.4029L1.59311 14.7794C1.61547 14.7908 1.64171 14.7921 1.66536 14.7839C1.68901 14.7757 1.70857 14.7587 1.71975 14.7359L2.38778 13.3732C2.6718 14.0557 3.03753 14.6964 3.47701 15.2806C4.31511 16.3951 5.37961 17.2719 6.64084 17.8871C7.70534 18.4061 8.84015 18.7013 10.0137 18.7643C10.171 18.7727 10.3308 18.7774 10.4877 18.7774C11.4585 18.7774 12.4196 18.6157 13.345 18.2971C14.4224 17.9262 15.4024 17.3603 16.2579 16.6145C17.1439 15.8426 17.8563 14.9112 18.3757 13.8467C18.4105 13.7749 18.445 13.7018 18.4778 13.6291C18.7524 13.0256 18.9586 12.3924 19.0902 11.7469C19.1005 11.6957 19.0674 11.6456 19.016 11.6355Z"
            fill="white" />
        <path
            d="M20.495 5.77551C20.4871 5.75186 20.4699 5.7323 20.4471 5.72112L20.1755 5.58725L19.4082 5.20897C19.3856 5.19779 19.3598 5.19607 19.3359 5.20424C19.3121 5.21241 19.2927 5.22961 19.2813 5.25197L18.5963 6.64221C18.2314 5.75831 17.7279 4.9458 17.0984 4.22445C16.3271 3.34077 15.3972 2.62974 14.3347 2.11157C13.2702 1.59233 12.1353 1.29713 10.9616 1.23413C10.8042 1.22574 10.6447 1.22144 10.4877 1.22144C9.51699 1.22144 8.55569 1.38291 7.6303 1.70156C6.5529 2.07266 5.5729 2.63877 4.71738 3.3842C3.83155 4.15629 3.11902 5.08749 2.59978 6.1522C2.27619 6.81572 2.0371 7.51557 1.88939 8.2324C1.88445 8.25691 1.88918 8.2825 1.90294 8.30357C1.9167 8.32464 1.9382 8.33926 1.96293 8.3442L3.09752 8.57813C3.14869 8.58867 3.19879 8.55577 3.20932 8.5046C3.33446 7.89806 3.53678 7.30529 3.81113 6.74304C4.68083 4.95977 6.19319 3.62178 8.06913 2.9759C8.85649 2.70478 9.67223 2.56739 10.4938 2.56739C11.6221 2.56739 12.7157 2.82174 13.7436 3.32314C15.3875 4.1249 16.6617 5.48353 17.3538 7.16575L15.8408 6.43644C15.7935 6.41387 15.7371 6.43343 15.7144 6.48074L15.2112 7.52438C15.1887 7.57147 15.2084 7.62801 15.2555 7.65059L18.6827 9.30249C18.6963 9.30873 18.7101 9.31174 18.7238 9.31174C18.7586 9.31174 18.7922 9.29239 18.8087 9.25884L20.1755 6.48556L20.4897 5.84818C20.5015 5.82539 20.503 5.79938 20.495 5.77551Z"
            fill="white" />
        <path fill-rule="evenodd" clip-rule="evenodd"
            d="M0.824893 14.4029V13.4991L0.859294 13.4289C0.860799 13.4235 0.862734 13.4179 0.865314 13.413L2.19212 10.7108C2.21513 10.6641 2.27168 10.645 2.31855 10.6676L5.74748 12.3397C5.79457 12.3629 5.81392 12.4195 5.79113 12.4665L5.28328 13.5076C5.27232 13.5304 5.25275 13.5476 5.2291 13.5555C5.20545 13.5639 5.17943 13.5622 5.15686 13.5512L3.60257 12.7933C4.28543 14.4904 5.56666 15.8632 7.23189 16.6753C8.26006 17.1767 9.35337 17.4313 10.4822 17.4313C11.3033 17.4313 12.1192 17.2941 12.9066 17.0228C14.7825 16.3771 16.2947 15.0391 17.1644 13.2556C17.194 13.1948 17.2231 13.1326 17.2512 13.0714C17.4839 12.5599 17.658 12.0236 17.7694 11.4777C17.7743 11.4534 17.789 11.4315 17.81 11.4177C17.8311 11.4042 17.8567 11.3992 17.881 11.4042L19.016 11.6355C19.0674 11.6456 19.1005 11.6957 19.0902 11.7469C18.9586 12.3924 18.7524 13.0256 18.4778 13.6291C18.445 13.7018 18.4105 13.7749 18.3757 13.8467C17.8563 14.9112 17.1439 15.8426 16.2579 16.6145C15.4024 17.3603 14.4224 17.9262 13.345 18.2971C12.4196 18.6157 11.4585 18.7774 10.4877 18.7774C10.3308 18.7774 10.171 18.7727 10.0137 18.7643C8.84015 18.7013 7.70534 18.4061 6.64084 17.8871C5.37961 17.2719 4.31511 16.3951 3.47701 15.2806C3.03753 14.6964 2.6718 14.0557 2.38778 13.3732L1.71975 14.7359C1.70857 14.7587 1.68901 14.7757 1.66536 14.7839C1.64171 14.7921 1.61547 14.7908 1.59311 14.7794L0.824893 14.4029ZM20.1755 6.48556V5.58725L19.4082 5.20897C19.3856 5.19779 19.3598 5.19607 19.3359 5.20424C19.3121 5.21241 19.2927 5.22961 19.2813 5.25197L18.5963 6.64221C18.2314 5.75831 17.7279 4.9458 17.0984 4.22445C16.3271 3.34077 15.3972 2.62974 14.3347 2.11157C13.2702 1.59233 12.1353 1.29713 10.9616 1.23413C10.8042 1.22574 10.6447 1.22144 10.4877 1.22144C9.51699 1.22144 8.55569 1.38291 7.6303 1.70156C6.5529 2.07266 5.5729 2.63877 4.71738 3.3842C3.83155 4.15629 3.11902 5.08749 2.59978 6.1522C2.27619 6.81572 2.0371 7.51557 1.88939 8.2324C1.88445 8.25691 1.88918 8.2825 1.90294 8.30357C1.9167 8.32464 1.9382 8.33926 1.96293 8.3442L3.09752 8.57813C3.14869 8.58867 3.19879 8.55577 3.20932 8.5046C3.33446 7.89806 3.53678 7.30529 3.81113 6.74304C4.68083 4.95977 6.19319 3.62178 8.06913 2.9759C8.85649 2.70478 9.67223 2.56739 10.4938 2.56739C11.6221 2.56739 12.7157 2.82174 13.7436 3.32314C15.3875 4.1249 16.6617 5.48353 17.3538 7.16575L15.8408 6.43644C15.7935 6.41387 15.7371 6.43343 15.7144 6.48074L15.2112 7.52438C15.1887 7.57147 15.2084 7.62801 15.2555 7.65059L18.6827 9.30249C18.6963 9.30873 18.7101 9.31174 18.7238 9.31174C18.7586 9.31174 18.7922 9.29239 18.8087 9.25884L20.1755 6.48556Z"
            fill="white" />
    </symbol>
    <symbol id="icon-cross" viewBox="0 0 10 10" fill="none" xmlns="http://www.w3.org/2000/svg">
        <path d="M3.33333 5L8.33333 0L10 1.66667L5 6.66667L3.33333 5Z" fill="#FF5959" />
        <path d="M5 6.66667L0 1.66667L1.66667 1.98682e-07L6.66667 5L5 6.66667Z" fill="#FF5959" />
        <path d="M3.33333 5L8.33333 10L10 8.33333L5 3.33333L3.33333 5Z" fill="#FF5959" />
        <path d="M5 3.33333L0 8.33333L1.66667 10L6.66667 5L5 3.33333Z" fill="#FF5959" />
    </symbol>
    <symbol id="icon-plus" viewBox="0 0 13 14" fill="none" xmlns="http://www.w3.org/2000/svg">
        <path d="M5 0.5H8V13.5H5V0.5Z" fill="white" />
        <path d="M13 5.5V8.5H0L1.31134e-07 5.5L13 5.5Z" fill="white" />
    </symbol>
    <symbol id="icon-check" viewBox="0 0 10 8" fill="none" xmlns="http://www.w3.org/2000/svg">
        <path d="M3.90643 7.05017L0.714844 3.85858L1.94913 2.6243L5.14071 5.81589L3.90643 7.05017Z" fill="white" />
        <path d="M2.67215 5.81589L7.82105 0.666992L9.05533 1.90127L3.90643 7.05017L2.67215 5.81589Z" fill="white" />
    </symbol>
    <symbol id="icon-search" viewBox="0 0 14 14" fill="none" xmlns="http://www.w3.org/2000/svg">
        <path d="M9.73975 10.6805L10.6527 9.76755L13.3987 12.5135L12.4857 13.4265L9.73975 10.6805Z" fill="#AEAEAE" />
        <path fill-rule="evenodd" clip-rule="evenodd"
            d="M0 6C0 9.3138 2.6862 12 6 12C9.3138 12 12 9.3138 12 6C12 2.6862 9.3138 0 6 0C2.6862 0 0 2.6862 0 6ZM6 10C8.20914 10 10 8.20914 10 6C10 3.79086 8.20914 2 6 2C3.79086 2 2 3.79086 2 6C2 8.20914 3.79086 10 6 10Z"
            fill="#AEAEAE" />
    </symbol>
    <symbol id="icon-dots" width="4" height="16" viewBox="0 0 4 16" fill="none" xmlns="http://www.w3.org/2000/svg">
        <circle cx="2" cy="2" r="2" fill="#FF6600" />
        <circle cx="2" cy="8" r="2" fill="#FF6600" />
        <circle cx="2" cy="14" r="2" fill="#FF6600" />
    </symbol>
    <symbol id="icon-edit" viewBox="0 0 12 12" fill="none" xmlns="http://www.w3.org/2000/svg">
        <path
            d="M6.61073 2.55667L9.44333 5.38994L2.8326 12H0V9.16673L6.61073 2.55601V2.55667ZM7.55493 1.61247L8.97123 0.195508C9.09645 0.0703245 9.26626 0 9.44333 0C9.62039 0 9.7902 0.0703245 9.91543 0.195508L11.8045 2.08457C11.9297 2.2098 12 2.37961 12 2.55667C12 2.73374 11.9297 2.90355 11.8045 3.02877L10.3875 4.44507L7.55493 1.61247Z"
            fill="#FF6600" />
    </symbol>
    <symbol id="icon-file" viewBox="0 0 17 19" fill="none" xmlns="http://www.w3.org/2000/svg">
        <path
            d="M16.0556 19H0.944444C0.693962 19 0.453739 18.8999 0.276621 18.7218C0.0995036 18.5436 0 18.302 0 18.05V0.95C0 0.698044 0.0995036 0.456408 0.276621 0.278249C0.453739 0.100089 0.693962 0 0.944444 0H16.0556C16.306 0 16.5463 0.100089 16.7234 0.278249C16.9005 0.456408 17 0.698044 17 0.95V18.05C17 18.302 16.9005 18.5436 16.7234 18.7218C16.5463 18.8999 16.306 19 16.0556 19ZM3.77778 3.8V7.6H7.55556V3.8H3.77778ZM3.77778 9.5V11.4H13.2222V9.5H3.77778ZM3.77778 13.3V15.2H13.2222V13.3H3.77778ZM9.44444 4.75V6.65H13.2222V4.75H9.44444Z"
            fill="currentColor" />
    </symbol>
    <symbol id="icon-save" viewBox="0 0 15 14" fill="none" xmlns="http://www.w3.org/2000/svg">
        <path
            d="M1.48676 0H11.5979L14.4811 2.88322C14.627 3.02905 14.7089 3.22685 14.709 3.43311V13.2222C14.709 13.4285 14.627 13.6263 14.4812 13.7722C14.3353 13.9181 14.1375 14 13.9312 14H1.48676C1.28048 14 1.08265 13.9181 0.93679 13.7722C0.790929 13.6263 0.708984 13.4285 0.708984 13.2222V0.777778C0.708984 0.571498 0.790929 0.373667 0.93679 0.227806C1.08265 0.0819442 1.28048 0 1.48676 0ZM7.70898 11.6667C8.32782 11.6667 8.92132 11.4208 9.3589 10.9832C9.79649 10.5457 10.0423 9.95217 10.0423 9.33333C10.0423 8.71449 9.79649 8.121 9.3589 7.68342C8.92132 7.24583 8.32782 7 7.70898 7C7.09015 7 6.49665 7.24583 6.05907 7.68342C5.62148 8.121 5.37565 8.71449 5.37565 9.33333C5.37565 9.95217 5.62148 10.5457 6.05907 10.9832C6.49665 11.4208 7.09015 11.6667 7.70898 11.6667ZM2.26454 1.55556V4.66667H10.0423V1.55556H2.26454Z"
            fill="white" />
    </symbol>
    <symbol id="icon-question" viewBox="0 0 22 22" fill="none" xmlns="http://www.w3.org/2000/svg">
        <circle cx="11" cy="11" r="10" stroke="#FF6600" stroke-width="1.5" />
        <path
            d="M9 8C9 6.89543 9.89543 6 11 6C12.1046 6 13 6.89543 13 8C13 8.39815 12.8837 8.76913 12.6831 9.08079C12.0854 10.0097 11 10.8954 11 12V12.5"
            stroke="#FF6600" stroke-width="1.5" stroke-linecap="round" />
        <path d="M10.991 16H11" stroke="#FF6600" stroke-width="2" stroke-linecap="round" stroke-linejoin="round" />
    </symbol>
    <symbol id="icon-guide" viewBox="0 0 20 22" fill="none" xmlns="http://www.w3.org/2000/svg">
        <path
            d="M1.5 9C1.5 5.22876 1.5 3.34315 2.7448 2.17157C3.98959 1 5.99306 1 10 1H10.7727C14.0339 1 15.6645 1 16.7969 1.79784C17.1214 2.02643 17.4094 2.29752 17.6523 2.60289C18.5 3.66867 18.5 5.20336 18.5 8.27273V10.8182C18.5 13.7814 18.5 15.2629 18.0311 16.4462C17.2772 18.3486 15.6829 19.8491 13.6616 20.5586C12.4044 21 10.8302 21 7.68182 21C5.88275 21 4.98322 21 4.26478 20.7478C3.10979 20.3424 2.19875 19.4849 1.76796 18.3979C1.5 17.7217 1.5 16.8751 1.5 15.1818V9Z"
            stroke="#FF6600" stroke-width="1.5" stroke-linejoin="round" />
        <path
            d="M18.5 11C18.5 12.8409 17.0076 14.3333 15.1667 14.3333C14.5009 14.3333 13.716 14.2167 13.0686 14.3901C12.4935 14.5442 12.0442 14.9935 11.8901 15.5686C11.7167 16.216 11.8333 17.0009 11.8333 17.6667C11.8333 19.5076 10.3409 21 8.5 21"
            stroke="#FF6600" stroke-width="1.5" stroke-linecap="round" stroke-linejoin="round" />
        <path d="M6 6H13" stroke="#FF6600" stroke-width="1.5" stroke-linecap="round" stroke-linejoin="round" />
        <path d="M6 10H9" stroke="#FF6600" stroke-width="1.5" stroke-linecap="round" stroke-linejoin="round" />
    </symbol>
</svg>